<svg width="7" height="11" viewBox="0 0 7 11" fill="none" xmlns="http://www.w3.org/2000/svg">
<path fill-rule="evenodd" clip-rule="evenodd" d="M0.768529 0.704508C1.06543 0.407613 1.54679 0.407613 1.84368 0.704508L5.92397 4.78479C6.22086 5.08169 6.22086 5.56305 5.92397 5.85995C5.62707 6.15684 5.14571 6.15684 4.84881 5.85995L0.768529 1.77966C0.471634 1.48277 0.471634 1.0014 0.768529 0.704508Z" fill="#831335"/>
<path fill-rule="evenodd" clip-rule="evenodd" d="M0.768529 0.704508C1.06543 0.407613 1.54679 0.407613 1.84368 0.704508L5.92397 4.78479C6.22086 5.08169 6.22086 5.56305 5.92397 5.85995C5.62707 6.15684 5.14571 6.15684 4.84881 5.85995L0.768529 1.77966C0.471634 1.48277 0.471634 1.0014 0.768529 0.704508Z" fill="#831335"/>
<path fill-rule="evenodd" clip-rule="evenodd" d="M0.74938 10.0619C1.04628 10.3588 1.52764 10.3588 1.82453 10.0619L5.90482 5.9816C6.20171 5.6847 6.20171 5.20334 5.90482 4.90644C5.60792 4.60955 5.12656 4.60955 4.82966 4.90644L0.74938 8.98673C0.452484 9.28362 0.452484 9.76498 0.74938 10.0619Z" fill="#831335"/>
<path fill-rule="evenodd" clip-rule="evenodd" d="M0.74938 10.0619C1.04628 10.3588 1.52764 10.3588 1.82453 10.0619L5.90482 5.9816C6.20171 5.6847 6.20171 5.20334 5.90482 4.90644C5.60792 4.60955 5.12656 4.60955 4.82966 4.90644L0.74938 8.98673C0.452484 9.28362 0.452484 9.76498 0.74938 10.0619Z" fill="#831335"/>
</svg>
