<svg width="7" height="11" viewBox="0 0 7 11" fill="none" xmlns="http://www.w3.org/2000/svg">
<path fill-rule="evenodd" clip-rule="evenodd" d="M6.0034 0.704508C5.7065 0.407613 5.22514 0.407613 4.92824 0.704508L0.84796 4.78479C0.551064 5.08169 0.551064 5.56305 0.84796 5.85995C1.14486 6.15684 1.62622 6.15684 1.92311 5.85995L6.0034 1.77966C6.30029 1.48277 6.30029 1.0014 6.0034 0.704508Z" fill="#831335"/>
<path fill-rule="evenodd" clip-rule="evenodd" d="M6.0034 0.704508C5.7065 0.407613 5.22514 0.407613 4.92824 0.704508L0.84796 4.78479C0.551064 5.08169 0.551064 5.56305 0.84796 5.85995C1.14486 6.15684 1.62622 6.15684 1.92311 5.85995L6.0034 1.77966C6.30029 1.48277 6.30029 1.0014 6.0034 0.704508Z" fill="#831335"/>
<path fill-rule="evenodd" clip-rule="evenodd" d="M6.02256 10.0618C5.72567 10.3587 5.2443 10.3587 4.94741 10.0618L0.867125 5.98157C0.570229 5.68467 0.570229 5.20331 0.867125 4.90641C1.16402 4.60952 1.64538 4.60952 1.94228 4.90641L6.02256 8.98669C6.31946 9.28359 6.31946 9.76495 6.02256 10.0618Z" fill="#831335"/>
<path fill-rule="evenodd" clip-rule="evenodd" d="M6.02256 10.0618C5.72567 10.3587 5.2443 10.3587 4.94741 10.0618L0.867125 5.98157C0.570229 5.68467 0.570229 5.20331 0.867125 4.90641C1.16402 4.60952 1.64538 4.60952 1.94228 4.90641L6.02256 8.98669C6.31946 9.28359 6.31946 9.76495 6.02256 10.0618Z" fill="#831335"/>
</svg>
