<svg width="76" height="76" viewBox="0 0 76 76" fill="none" xmlns="http://www.w3.org/2000/svg">
<g filter="url(#filter0_d_986_1013)">
<circle cx="35.7999" cy="36" r="32.5" fill="#831335"/>
<circle cx="35.7999" cy="36" r="31.5" stroke="white" stroke-width="2"/>
</g>
<g clip-path="url(#clip0_986_1013)">
<path d="M44.1358 38.9212L43.4877 41.1066C43.3623 41.5394 42.986 41.8423 42.547 41.8423H40.3102L42.1498 43.2921C42.4843 43.5518 42.6306 44.0062 42.5052 44.4173L41.8153 46.6893L43.5295 45.3261C43.6968 45.1747 43.9058 45.1097 44.1358 45.1097C44.3448 45.1097 44.5748 45.1747 44.742 45.3261L46.4562 46.6893L45.7663 44.4173C45.6409 44.0062 45.7872 43.5518 46.1217 43.2921L47.9613 41.8423H45.7245C45.2855 41.8423 44.9092 41.5394 44.7838 41.1066L44.1358 38.9212ZM35.1258 23.8609C32.3873 23.8609 30.1714 26.1546 30.1714 28.9892C30.1714 31.7372 32.2619 33.9876 34.875 34.1175H35.1049H35.1258H35.1467H35.3767C37.9898 33.9876 40.0802 31.7372 40.0802 28.9892C40.0802 26.1762 37.8434 23.8609 35.1258 23.8609ZM35.1258 22C38.8469 22 41.878 25.1376 41.878 28.9892C41.878 31.2828 40.8119 33.3168 39.1604 34.5935L38.9723 34.745L39.2022 34.8099C40.4983 35.2643 41.7317 35.9351 42.8188 36.8223L42.8606 36.8655L43.1741 35.7836C43.2996 35.3509 43.6759 35.0479 44.1149 35.0479C44.5538 35.0479 44.9301 35.3292 45.0556 35.7836L46.3098 39.9815H50.3235C50.7416 39.9815 51.1388 40.2628 51.2643 40.6739C51.4106 41.1066 51.2643 41.5611 50.9298 41.8207L47.6477 44.4173L48.902 48.6368C49.0275 49.0696 48.8811 49.524 48.5257 49.7836C48.3585 49.9134 48.1495 49.9784 47.9613 49.9784C47.7523 49.9784 47.5432 49.9134 47.3551 49.762L44.1149 47.2087L40.8955 49.7836C40.5611 50.0649 40.0802 50.0649 39.7249 49.8053C39.3695 49.5456 39.2232 49.0912 39.3486 48.6584L40.6029 44.4389L37.3208 41.8423C36.9863 41.5827 36.84 41.1066 36.9863 40.6955C37.1327 40.2844 37.509 40.0031 37.9271 40.0031H41.9408L42.2961 38.813C40.3729 37.0386 37.9271 36.0649 35.3767 36H35.1676H35.1258H35.084H34.8332C29.0008 36.1515 24.2972 41.085 24.2972 47.1221H22.4994C22.4994 41.4096 26.095 36.5626 31.0703 34.8099L31.2585 34.745L31.0703 34.6151C29.4188 33.3385 28.3527 31.3045 28.3527 29.0108C28.3527 25.1376 31.3839 22 35.1258 22Z" fill="white"/>
</g>
<defs>
<filter id="filter0_d_986_1013" x="0.299927" y="0.5" width="75" height="75" filterUnits="userSpaceOnUse" color-interpolation-filters="sRGB">
<feFlood flood-opacity="0" result="BackgroundImageFix"/>
<feColorMatrix in="SourceAlpha" type="matrix" values="0 0 0 0 0 0 0 0 0 0 0 0 0 0 0 0 0 0 127 0" result="hardAlpha"/>
<feOffset dx="2" dy="2"/>
<feGaussianBlur stdDeviation="2.5"/>
<feComposite in2="hardAlpha" operator="out"/>
<feColorMatrix type="matrix" values="0 0 0 0 0 0 0 0 0 0 0 0 0 0 0 0 0 0 0.35 0"/>
<feBlend mode="normal" in2="BackgroundImageFix" result="effect1_dropShadow_986_1013"/>
<feBlend mode="normal" in="SourceGraphic" in2="effect1_dropShadow_986_1013" result="shape"/>
</filter>
<clipPath id="clip0_986_1013">
<rect width="28.8485" height="28" fill="white" transform="translate(22.4994 22)"/>
</clipPath>
</defs>
</svg>
